<?xml version="1.0" encoding="UTF-8" standalone="no" ?>
<!DOCTYPE svg PUBLIC "-//W3C//DTD SVG 1.1//EN" "http://www.w3.org/Graphics/SVG/1.1/DTD/svg11.dtd">
<svg xmlns="http://www.w3.org/2000/svg" xmlns:xlink="http://www.w3.org/1999/xlink" version="1.1" width="1080" height="1080" viewBox="0 0 1080 1080" xml:space="preserve">
<desc>Created with Fabric.js 5.2.4</desc>
<defs>
</defs>
<g transform="matrix(1 0 0 1 540 540)" id="ba21e2f2-eaae-415e-9007-b781524cf9b0"  >
</g>
<g transform="matrix(1 0 0 1 540 540)" id="34039330-509b-415e-8927-ed10f7eda4e2"  >
<rect style="stroke: none; stroke-width: 1; stroke-dasharray: none; stroke-linecap: butt; stroke-dashoffset: 0; stroke-linejoin: miter; stroke-miterlimit: 4; fill: rgb(255,255,255); fill-rule: nonzero; opacity: 1; visibility: hidden;" vector-effect="non-scaling-stroke"  x="-540" y="-540" rx="0" ry="0" width="1080" height="1080" />
</g>
<g transform="matrix(1.89 0 0 2.47 539.98 539.91)" id="7055681e-091e-4eeb-9860-9692c9c9d01e"  >
<rect style="stroke: rgb(0,0,0); stroke-width: 2; stroke-dasharray: none; stroke-linecap: butt; stroke-dashoffset: 0; stroke-linejoin: miter; stroke-miterlimit: 4; fill: rgb(253,186,116); fill-rule: nonzero; opacity: 1;" vector-effect="non-scaling-stroke"  x="-33.085" y="-33.085" rx="0" ry="0" width="66.17" height="66.17" />
</g>
<g transform="matrix(6.06 0 0 6.06 540 446.1)"  >
<path style="stroke: rgb(0,0,0); stroke-width: 2; stroke-dasharray: none; stroke-linecap: butt; stroke-dashoffset: 0; stroke-linejoin: miter; stroke-miterlimit: 4; fill: rgb(253,186,116); fill-rule: nonzero; opacity: 1;" vector-effect="non-scaling-stroke"  transform=" translate(-50, -50)" d="M 63.019 21.854 L 70.30199999999999 21.854 C 71.288 21.854 72.13499999999999 22.698999999999998 72.13499999999999 23.686999999999998 L 72.13499999999999 35.858 L 86.28099999999999 45.538 C 86.987 46.007 87.175 46.94799999999999 86.70299999999999 47.651999999999994 C 86.234 48.31099999999999 85.29299999999999 48.498999999999995 84.58899999999998 48.028999999999996 L 50.002 24.298 L 15.365 48.03 C 14.708 48.5 13.768 48.357 13.299 47.606 C 12.828 46.948 13.016 46.008 13.674 45.539 L 48.825 21.477 C 49.06 21.148 49.482 20.96 49.905 20.96 C 50.376 20.913 50.845 21.101 51.175000000000004 21.477 L 61.136 28.291 L 61.136 23.687 C 61.137 22.7 61.983 21.854 63.019 21.854 z M 24.202 45.445 L 49.907 27.634 L 75.613 45.445 L 75.613 75.05199999999999 C 75.613 77.261 73.828 79.04599999999999 71.619 79.04599999999999 L 56.814 79.04599999999999 L 56.814 53.763 L 43.798 53.763 L 43.798 79.04599999999999 L 28.196 79.04599999999999 C 25.986 79.04599999999999 24.202 77.261 24.202 75.05199999999999 L 24.202 45.445 z" stroke-linecap="round" />
</g>
<g transform="matrix(0 0 0 0 0 0)"  >
<g style=""   >
</g>
</g>
<g transform="matrix(0 0 0 0 0 0)"  >
<g style=""   >
</g>
</g>
<g transform="matrix(1.99 0 0 2.59 540 536.03)" id="28163ab4-9f9f-48a9-a237-038c279cdf8d"  >
<rect style="stroke: rgb(0,0,0); stroke-width: 0; stroke-dasharray: none; stroke-linecap: butt; stroke-dashoffset: 0; stroke-linejoin: miter; stroke-miterlimit: 4; fill: rgb(253,186,116); fill-rule: nonzero; opacity: 1;" vector-effect="non-scaling-stroke"  x="-33.085" y="-33.085" rx="0" ry="0" width="66.17" height="66.17" />
</g>
<g transform="matrix(0 0 0 0 0 0)"  >
<g style=""   >
</g>
</g>
<g transform="matrix(1 0 0 1 442.92 448.62)" id="275c9097-dea6-4ed8-a4b1-77ff2d265b01"  >
<circle style="stroke: rgb(0,0,0); stroke-width: 2; stroke-dasharray: none; stroke-linecap: butt; stroke-dashoffset: 0; stroke-linejoin: miter; stroke-miterlimit: 4; fill: rgb(255,255,255); fill-rule: nonzero; opacity: 1;" vector-effect="non-scaling-stroke"  cx="0" cy="0" r="35" />
</g>
<g transform="matrix(1 0 0 1 635.39 447.22)" id="275c9097-dea6-4ed8-a4b1-77ff2d265b01"  >
<circle style="stroke: rgb(0,0,0); stroke-width: 2; stroke-dasharray: none; stroke-linecap: butt; stroke-dashoffset: 0; stroke-linejoin: miter; stroke-miterlimit: 4; fill: rgb(255,255,255); fill-rule: nonzero; opacity: 1;" vector-effect="non-scaling-stroke"  cx="0" cy="0" r="35" />
</g>
<g transform="matrix(0.66 0 0 0.66 441.75 445.53)"  >
<g style="" vector-effect="non-scaling-stroke"   >
		<g transform="matrix(1 0 0 1 0 11.97)"  >
<path style="stroke: none; stroke-width: 1; stroke-dasharray: none; stroke-linecap: butt; stroke-dashoffset: 0; stroke-linejoin: miter; stroke-miterlimit: 4; fill: rgb(0,0,0); fill-rule: nonzero; opacity: 1;" vector-effect="non-scaling-stroke"  transform=" translate(-50, -61.97)" d="M 81.389 41.474 L 74.557 41.474 C 74.458 45.013999999999996 71.607 47.913 68.018 47.913 C 64.478 47.913 61.577 45.013999999999996 61.53 41.474 L 38.521 41.474 C 38.472 45.013999999999996 35.572 47.913 31.981 47.913 C 28.441000000000003 47.913 25.542 45.013999999999996 25.493000000000002 41.474 L 18.659000000000002 41.474 C 15.610000000000003 41.474 13.104000000000003 43.980999999999995 13.104000000000003 47.028999999999996 C 13.104000000000003 49.928999999999995 15.414000000000003 52.339 18.266000000000002 52.535 L 25.542 79.87 C 25.886000000000003 81.245 26.721 82.474 28.147000000000002 82.474 L 70.869 82.474 C 72.346 82.474 73.082 81.245 73.524 79.87 L 81.783 52.535000000000004 C 84.635 52.339000000000006 86.897 49.929 86.897 47.029 C 86.896 43.981 84.438 41.474 81.389 41.474 z M 63.839 68.809 C 64.625 68.809 65.265 69.448 65.265 70.233 C 65.265 71.021 64.625 71.66000000000001 63.839 71.66000000000001 L 36.21 71.66000000000001 C 35.422000000000004 71.66000000000001 34.784 71.02100000000002 34.784 70.233 C 34.784 69.44800000000001 35.422 68.809 36.21 68.809 M 67.87 65.465 L 32.177 65.465 C 31.391 65.465 30.753 64.825 30.753 64.039 C 30.753 63.253 31.392 62.613 32.177 62.613 L 67.87 62.613 C 68.656 62.613 69.296 63.253 69.296 64.039 C 69.296 64.825 68.656 65.465 67.87 65.465 z M 71.557 58.827 L 28.492 58.827 C 27.704 58.827 27.066000000000003 58.189 27.066000000000003 57.400999999999996 C 27.066000000000003 56.614999999999995 27.705000000000002 56.025999999999996 28.492 56.025999999999996 L 71.556 56.025999999999996 C 72.344 56.025999999999996 72.983 56.614999999999995 72.983 57.400999999999996 C 72.983 58.189 72.345 58.827 71.557 58.827 z" stroke-linecap="round" />
</g>
		<g transform="matrix(1 0 0 1 -12.05 -18.69)"  >
<path style="stroke: none; stroke-width: 1; stroke-dasharray: none; stroke-linecap: butt; stroke-dashoffset: 0; stroke-linejoin: miter; stroke-miterlimit: 4; fill: rgb(0,0,0); fill-rule: nonzero; opacity: 1;" vector-effect="non-scaling-stroke"  transform=" translate(-37.95, -31.31)" d="M 30.243 44.579 L 30.314 44.621 C 31.977 45.579 34.105 45.011 35.063 43.347 L 46.936 22.783 C 47.898 21.12 47.327 18.994 45.664 18.034000000000002 L 45.591 17.992 C 43.928000000000004 17.032 41.802 17.603 40.842 19.266000000000002 L 28.97 39.83 C 28.011 41.493 28.58 43.618 30.243 44.579 z" stroke-linecap="round" />
</g>
		<g transform="matrix(1 0 0 1 12.07 -18.69)"  >
<path style="stroke: none; stroke-width: 1; stroke-dasharray: none; stroke-linecap: butt; stroke-dashoffset: 0; stroke-linejoin: miter; stroke-miterlimit: 4; fill: rgb(0,0,0); fill-rule: nonzero; opacity: 1;" vector-effect="non-scaling-stroke"  transform=" translate(-62.07, -31.31)" d="M 64.96 43.347 C 65.919 45.011 68.04599999999999 45.579 69.70899999999999 44.621 L 69.77999999999999 44.579 C 71.44299999999998 43.619 72.01399999999998 41.493 71.05299999999998 39.83 L 59.182 19.265 C 58.221000000000004 17.602 56.096000000000004 17.031 54.433 17.991 L 54.36 18.033 C 52.697 18.993000000000002 52.128 21.119 53.089 22.782 L 64.96 43.347 z" stroke-linecap="round" />
</g>
</g>
</g>
<g transform="matrix(1 0 0 1 440.38 561.26)" id="275c9097-dea6-4ed8-a4b1-77ff2d265b01"  >
<circle style="stroke: rgb(0,0,0); stroke-width: 2; stroke-dasharray: none; stroke-linecap: butt; stroke-dashoffset: 0; stroke-linejoin: miter; stroke-miterlimit: 4; fill: rgb(255,255,255); fill-rule: nonzero; opacity: 1;" vector-effect="non-scaling-stroke"  cx="0" cy="0" r="35" />
</g>
<g transform="matrix(0.56 0 0 0.56 439.13 561.86)"  >
<path style="stroke: rgb(0,0,0); stroke-width: 0; stroke-dasharray: none; stroke-linecap: butt; stroke-dashoffset: 0; stroke-linejoin: miter; stroke-miterlimit: 4; fill: rgb(0,0,0); fill-rule: nonzero; opacity: 1;" vector-effect="non-scaling-stroke"  transform=" translate(-50, -50)" d="M 75.273 39.302 C 77.09599999999999 38.496 81.551 36.296 83.91 33.185 C 86.916 29.268 86.701 27.926000000000002 86.701 27.926000000000002 L 76.34599999999999 29.804000000000002 L 73.61099999999999 27.497000000000003 L 74.36099999999999 25.297000000000004 L 84.23599999999999 23.258000000000003 C 84.23599999999999 23.258000000000003 80.21 19.930000000000003 75.59599999999999 19.072000000000003 C 71.24799999999999 18.213 65.66899999999998 19.179000000000002 63.52099999999999 23.847 L 63.52099999999999 23.794 C 63.52099999999999 23.794 62.448999999999984 26.047 62.289999999999985 27.55 C 62.127999999999986 29 61.37699999999999 32.166 59.978999999999985 34.688 C 58.79999999999998 36.78 57.512999999999984 39.195 54.292999999999985 42.359 L 53.43499999999999 41.501000000000005 L 53.057999999999986 41.82300000000001 L 42.111 30.503 C 39.214999999999996 21.112000000000002 53.327999999999996 23.688 59.39 24.44 C 44.688 10.328000000000001 28.858 17.035 21.024 33.293 C 19.092000000000002 35.653999999999996 14.907 33.775 12.546000000000001 38.66 C 13.886000000000001 42.416 19.681 46.117 22.955000000000002 47.297999999999995 C 27.087000000000003 44.882 26.175 40.483 27.194000000000003 37.318 C 30.307000000000002 34.741 32.775000000000006 35.601 35.725 37.693 L 47.423 47.190999999999995 L 47.101 47.513 L 47.637 48.103 C 39.052 55.187 22.955000000000002 68.226 21.077 69.727 C 18.770000000000003 71.60600000000001 14.745000000000001 75.14800000000001 19.145000000000003 79.654 C 23.598000000000003 84.161 27.783 81.372 29.125000000000004 80.03 C 30.092000000000002 79.119 44.955000000000005 64.792 54.397000000000006 55.775999999999996 L 78.543 83.25 L 87.44900000000001 74.664 L 61.376 49.229 C 61.698 48.907 61.964 48.638 62.071 48.586 C 63.361 47.512 65.454 45.044 70.925 43.434 L 76.937 44.186 L 77.044 43.702 L 75.273 39.302 z" stroke-linecap="round" />
</g>
<g transform="matrix(0.6 0 0 0.6 634.46 446.72)"  >
<g style="" vector-effect="non-scaling-stroke"   >
		<g transform="matrix(1 0 0 1 0 0)"  >
<polygon style="stroke: none; stroke-width: 1; stroke-dasharray: none; stroke-linecap: butt; stroke-dashoffset: 0; stroke-linejoin: miter; stroke-miterlimit: 4; fill: rgb(0,0,0); fill-rule: nonzero; opacity: 1;" vector-effect="non-scaling-stroke"  points="-32.51,-35.64 -37.05,-35.64 -37.05,35.64 37.05,35.64 37.05,31.04 -32.51,31.04 " />
</g>
		<g transform="matrix(1 0 0 1 -21.28 5.24)"  >
<path style="stroke: none; stroke-width: 1; stroke-dasharray: none; stroke-linecap: butt; stroke-dashoffset: 0; stroke-linejoin: miter; stroke-miterlimit: 4; fill: rgb(0,0,0); fill-rule: nonzero; opacity: 1;" vector-effect="non-scaling-stroke"  transform=" translate(-28.72, -55.25)" d="M 24.092 36.293 L 34.291 36.293 L 34.291 74.19800000000001 L 23.15 74.19800000000001 L 23.15 36.293 L 24.092 36.293 z" stroke-linecap="round" />
</g>
		<g transform="matrix(1 0 0 1 -8.49 1.03)"  >
<path style="stroke: none; stroke-width: 1; stroke-dasharray: none; stroke-linecap: butt; stroke-dashoffset: 0; stroke-linejoin: miter; stroke-miterlimit: 4; fill: rgb(0,0,0); fill-rule: nonzero; opacity: 1;" vector-effect="non-scaling-stroke"  transform=" translate(-41.51, -51.03)" d="M 36.826 27.863 L 47.082 27.863 L 47.082 74.19800000000001 L 35.94 74.19800000000001 L 35.94 27.863 L 36.826 27.863 z" stroke-linecap="round" />
</g>
		<g transform="matrix(1 0 0 1 4.27 11.91)"  >
<path style="stroke: none; stroke-width: 1; stroke-dasharray: none; stroke-linecap: butt; stroke-dashoffset: 0; stroke-linejoin: miter; stroke-miterlimit: 4; fill: rgb(0,0,0); fill-rule: nonzero; opacity: 1;" vector-effect="non-scaling-stroke"  transform=" translate(-54.27, -61.91)" d="M 49.616 49.616 L 59.815 49.616 L 59.815 74.19800000000001 L 48.735 74.19800000000001 L 48.735 49.616 L 49.616 49.616 z" stroke-linecap="round" />
</g>
		<g transform="matrix(1 0 0 1 17.04 -0.33)"  >
<path style="stroke: none; stroke-width: 1; stroke-dasharray: none; stroke-linecap: butt; stroke-dashoffset: 0; stroke-linejoin: miter; stroke-miterlimit: 4; fill: rgb(0,0,0); fill-rule: nonzero; opacity: 1;" vector-effect="non-scaling-stroke"  transform=" translate(-67.04, -49.68)" d="M 62.411 25.152 L 72.60900000000001 25.152 L 72.60900000000001 74.19800000000001 L 61.469 74.19800000000001 L 61.469 25.152 L 62.411 25.152 z" stroke-linecap="round" />
</g>
</g>
</g>
<g transform="matrix(1 0 0 1 635.13 564.42)" id="275c9097-dea6-4ed8-a4b1-77ff2d265b01"  >
<circle style="stroke: rgb(0,0,0); stroke-width: 2; stroke-dasharray: none; stroke-linecap: butt; stroke-dashoffset: 0; stroke-linejoin: miter; stroke-miterlimit: 4; fill: rgb(255,255,255); fill-rule: nonzero; opacity: 1;" vector-effect="non-scaling-stroke"  cx="0" cy="0" r="35" />
</g>
<g transform="matrix(0.55 0 0 0.55 634.93 563.98)"  >
<g style="" vector-effect="non-scaling-stroke"   >
		<g transform="matrix(1 0 0 1 26.98 -17.47)"  >
<polygon style="stroke: none; stroke-width: 1; stroke-dasharray: none; stroke-linecap: butt; stroke-dashoffset: 0; stroke-linejoin: miter; stroke-miterlimit: 4; fill: rgb(0,0,0); fill-rule: nonzero; opacity: 1;" vector-effect="non-scaling-stroke"  points="-4.37,-5.16 4.37,5.16 -4.37,5.16 " />
</g>
		<g transform="matrix(1 0 0 1 6.42 7.4)"  >
<path style="stroke: none; stroke-width: 1; stroke-dasharray: none; stroke-linecap: butt; stroke-dashoffset: 0; stroke-linejoin: miter; stroke-miterlimit: 4; fill: rgb(0,0,0); fill-rule: nonzero; opacity: 1;" vector-effect="non-scaling-stroke"  transform=" translate(-56.42, -57.4)" d="M 30.998 27.366 L 70.04 27.366 L 70.04 40.143 L 81.83500000000001 40.143 L 81.83500000000001 87.432 L 30.998 87.432 L 30.998 27.366 z" stroke-linecap="round" />
</g>
		<g transform="matrix(1 0 0 1 -7.75 -18.7)"  >
<path style="stroke: none; stroke-width: 1; stroke-dasharray: none; stroke-linecap: butt; stroke-dashoffset: 0; stroke-linejoin: miter; stroke-miterlimit: 4; fill: rgb(0,0,0); fill-rule: nonzero; opacity: 1;" vector-effect="non-scaling-stroke"  transform=" translate(-42.25, -31.3)" d="M 20.569 12.568 L 42.357 12.568 C 43.611 12.568 44.705 13.658999999999999 44.705 14.972 L 44.705 18.738 L 63.98 18.738 C 65.289 18.738 66.328 19.776 66.328 21.086 L 66.328 23.054 L 30.726 23.054 C 29.142 23.054 27.503 24.363 27.012999999999998 25.947 L 27.012999999999998 50.025999999999996 L 20.134 49.973 C 19.041 49.807 18.166 48.826 18.166 47.625 L 18.166 14.973 C 18.165 13.66 19.258 12.568 20.569 12.568 z" stroke-linecap="round" />
</g>
</g>
</g>
<g transform="matrix(1 0 0 1 540 496.87)" id="275c9097-dea6-4ed8-a4b1-77ff2d265b01"  >
<circle style="stroke: rgb(0,0,0); stroke-width: 2; stroke-dasharray: none; stroke-linecap: butt; stroke-dashoffset: 0; stroke-linejoin: miter; stroke-miterlimit: 4; fill: rgb(255,255,255); fill-rule: nonzero; opacity: 1;" vector-effect="non-scaling-stroke"  cx="0" cy="0" r="35" />
</g>
<g transform="matrix(0.65 0 0 0.65 539.93 494.95)"  >
<g style="" vector-effect="non-scaling-stroke"   >
		<g transform="matrix(1 0 0 1 0.85 5.92)"  >
<path style="stroke: none; stroke-width: 1; stroke-dasharray: none; stroke-linecap: butt; stroke-dashoffset: 0; stroke-linejoin: miter; stroke-miterlimit: 4; fill: rgb(0,0,0); fill-rule: nonzero; opacity: 1;" vector-effect="non-scaling-stroke"  transform=" translate(-50.86, -55.92)" d="M 50.861 87.432 L 46.214999999999996 87.432 L 42.589999999999996 82.34400000000001 C 42.589999999999996 73.18400000000001 41.827 64.72600000000001 36.92699999999999 59.95500000000001 C 32.855999999999995 56.201000000000015 30.313999999999993 50.85900000000001 30.313999999999993 44.942000000000014 C 30.313999999999993 33.622000000000014 39.535 24.399000000000015 50.85999999999999 24.399000000000015 C 62.17999999999999 24.399000000000015 71.401 33.622000000000014 71.401 44.942000000000014 C 71.401 50.859000000000016 68.859 56.201000000000015 64.788 59.95500000000001 C 59.891999999999996 64.72600000000001 59.126 73.18400000000001 59.126 82.34400000000001 L 55.501 87.432 L 50.861 87.432 z M 44.625 74.33 L 57.093 74.33 C 57.794000000000004 67.77799999999999 59.574000000000005 60.908 62.81700000000001 57.792 C 66.31500000000001 54.547000000000004 68.48 49.969 68.48 44.879000000000005 C 68.48 35.148 60.591 27.261000000000006 50.86200000000001 27.261000000000006 C 41.12800000000001 27.261000000000006 33.239000000000004 35.148 33.239000000000004 44.879000000000005 C 33.239000000000004 49.96900000000001 35.404 54.547000000000004 38.84 57.792 C 42.083 60.908 43.928 67.778 44.625 74.33 z" stroke-linecap="round" />
</g>
		<g transform="matrix(1 0 0 1 27.51 -6.07)"  >
<path style="stroke: none; stroke-width: 1; stroke-dasharray: none; stroke-linecap: butt; stroke-dashoffset: 0; stroke-linejoin: miter; stroke-miterlimit: 4; fill: rgb(0,0,0); fill-rule: nonzero; opacity: 1;" vector-effect="non-scaling-stroke"  transform=" translate(-77.51, -43.93)" d="M 80.181 45.262 L 74.838 45.262 C 74.076 45.262 73.502 44.688 73.502 43.926 C 73.502 43.227000000000004 74.076 42.589 74.838 42.589 L 80.181 42.589 C 80.944 42.589 81.518 43.227 81.518 43.926 C 81.518 44.688 80.943 45.262 80.181 45.262 z" stroke-linecap="round" />
</g>
		<g transform="matrix(1 0 0 1 -27.51 -6.07)"  >
<path style="stroke: none; stroke-width: 1; stroke-dasharray: none; stroke-linecap: butt; stroke-dashoffset: 0; stroke-linejoin: miter; stroke-miterlimit: 4; fill: rgb(0,0,0); fill-rule: nonzero; opacity: 1;" vector-effect="non-scaling-stroke"  transform=" translate(-22.49, -43.93)" d="M 25.162 45.262 L 19.82 45.262 C 19.057 45.262 18.483 44.688 18.483 43.926 C 18.483 43.227000000000004 19.057000000000002 42.589 19.82 42.589 L 25.162 42.589 C 25.863 42.589 26.499 43.227 26.499 43.926 C 26.499 44.688 25.863 45.262 25.162 45.262 z" stroke-linecap="round" />
</g>
		<g transform="matrix(1 0 0 1 19.44 -25.51)"  >
<path style="stroke: none; stroke-width: 1; stroke-dasharray: none; stroke-linecap: butt; stroke-dashoffset: 0; stroke-linejoin: miter; stroke-miterlimit: 4; fill: rgb(0,0,0); fill-rule: nonzero; opacity: 1;" vector-effect="non-scaling-stroke"  transform=" translate(-69.44, -24.49)" d="M 72.297 23.571 L 68.47999999999999 27.325000000000003 C 67.97099999999999 27.833000000000002 67.14299999999999 27.833000000000002 66.63399999999999 27.325000000000003 C 66.05999999999999 26.816000000000003 66.05999999999999 25.988000000000003 66.63399999999999 25.416000000000004 L 70.38599999999998 21.665000000000003 C 70.89399999999998 21.154000000000003 71.78799999999998 21.154000000000003 72.29699999999998 21.665000000000003 C 72.805 22.173 72.805 23.063 72.297 23.571 z" stroke-linecap="round" />
</g>
		<g transform="matrix(1 0 0 1 -19.46 13.42)"  >
<path style="stroke: none; stroke-width: 1; stroke-dasharray: none; stroke-linecap: butt; stroke-dashoffset: 0; stroke-linejoin: miter; stroke-miterlimit: 4; fill: rgb(0,0,0); fill-rule: nonzero; opacity: 1;" vector-effect="non-scaling-stroke"  transform=" translate(-30.54, -63.42)" d="M 33.366 62.436 L 29.615 66.251 C 29.046 66.76100000000001 28.217 66.76100000000001 27.709 66.251 C 27.201 65.742 27.201 64.85300000000001 27.709 64.34400000000001 L 31.46 60.59100000000001 C 31.968 60.08200000000001 32.858000000000004 60.08200000000001 33.366 60.59100000000001 C 33.879 61.099 33.879 61.927 33.366 62.436 z" stroke-linecap="round" />
</g>
		<g transform="matrix(1 0 0 1 19.44 13.42)"  >
<path style="stroke: none; stroke-width: 1; stroke-dasharray: none; stroke-linecap: butt; stroke-dashoffset: 0; stroke-linejoin: miter; stroke-miterlimit: 4; fill: rgb(0,0,0); fill-rule: nonzero; opacity: 1;" vector-effect="non-scaling-stroke"  transform=" translate(-69.44, -63.42)" d="M 70.386 66.251 L 66.634 62.43600000000001 C 66.06 61.92700000000001 66.06 61.099000000000004 66.634 60.59100000000001 C 67.143 60.08200000000001 67.971 60.08200000000001 68.48 60.59100000000001 L 72.297 64.34400000000001 C 72.80499999999999 64.85300000000001 72.80499999999999 65.742 72.297 66.251 C 71.788 66.761 70.894 66.761 70.386 66.251 z" stroke-linecap="round" />
</g>
		<g transform="matrix(1 0 0 1 -19.46 -25.51)"  >
<path style="stroke: none; stroke-width: 1; stroke-dasharray: none; stroke-linecap: butt; stroke-dashoffset: 0; stroke-linejoin: miter; stroke-miterlimit: 4; fill: rgb(0,0,0); fill-rule: nonzero; opacity: 1;" vector-effect="non-scaling-stroke"  transform=" translate(-30.54, -24.49)" d="M 31.459 27.325 L 27.708 23.570999999999998 C 27.2 23.063 27.2 22.173 27.708 21.665 C 28.215999999999998 21.154 29.044999999999998 21.154 29.613999999999997 21.665 L 33.364999999999995 25.416 C 33.87799999999999 25.988 33.87799999999999 26.816 33.364999999999995 27.325 C 32.857 27.833 31.968 27.833 31.459 27.325 z" stroke-linecap="round" />
</g>
		<g transform="matrix(1 0 0 1 1.31 -33.39)"  >
<path style="stroke: none; stroke-width: 1; stroke-dasharray: none; stroke-linecap: butt; stroke-dashoffset: 0; stroke-linejoin: miter; stroke-miterlimit: 4; fill: rgb(0,0,0); fill-rule: nonzero; opacity: 1;" vector-effect="non-scaling-stroke"  transform=" translate(-51.3, -16.61)" d="M 49.967 19.311 L 49.967 13.902999999999999 C 49.967 13.203999999999999 50.541 12.568999999999999 51.303 12.568999999999999 C 52.004 12.568999999999999 52.64 13.203999999999999 52.64 13.902999999999999 L 52.64 19.311 C 52.64 20.01 52.004 20.645 51.303 20.645 C 50.541 20.646 49.967 20.01 49.967 19.311 z" stroke-linecap="round" />
</g>
</g>
</g>
</svg>